<?xml version="1.0" encoding="UTF-8"?>
<svg width="150px" height="100px" viewBox="0 0 150 100" version="1.1" xmlns="http://www.w3.org/2000/svg" xmlns:xlink="http://www.w3.org/1999/xlink">
    <g id="Page-1" stroke="none" stroke-width="1" fill="none" fill-rule="evenodd">
        <g id="car-logo" fill-rule="nonzero">
            <polygon id="Path" fill-opacity="0" fill="#000000" points="0 0 150 0 150 100 0 100"></polygon>
            <path d="M135.892,94.823 C140.815,94.823 144.822,90.817 144.822,85.893 L144.822,14.107 C144.822,9.184 140.815,5.178 135.892,5.178 L14.108,5.178 C9.184,5.178 5.178,9.184 5.178,14.107 L5.178,85.893 C5.178,90.817 9.184,94.823 14.108,94.823 L135.892,94.823 Z M0.01,14.107 C0.01,6.269 6.335,0.01 14.108,0.01 L135.892,0.01 C143.665,0.01 149.991,6.269 149.991,14.107 L149.991,85.893 C149.991,93.732 143.665,99.99 135.892,99.99 L14.108,99.99 C6.335,99.99 0.01,93.732 0.01,85.893 L0.01,14.107 Z M82.981,73.13 L69.955,73.13 C68.045,73.13 66.783,71.858 66.783,69.963 L66.783,60.335 C66.783,58.441 68.045,57.168 69.955,57.168 L88.123,57.168 L88.123,52.027 L69.48,52.027 C65.154,52.027 61.635,55.546 61.635,59.871 L61.635,70.428 C61.635,74.752 65.154,78.272 69.48,78.272 L88.123,78.272 L88.123,62.792 L75,62.792 L75,67.878 L82.98,67.878 L82.981,73.13 Z M67.025,34.425 L67.025,29.802 C67.025,27.907 68.287,26.634 70.196,26.634 L79.809,26.634 C81.718,26.634 82.98,27.907 82.98,29.802 L82.98,34.425 L67.025,34.425 Z M82.98,39.569 L82.98,47.974 L88.123,47.974 L88.123,29.338 C88.123,25.012 84.604,21.493 80.278,21.493 L69.721,21.493 C65.396,21.493 61.877,25.012 61.877,29.338 L61.877,47.974 L67.025,47.974 L67.025,39.569 L82.98,39.569 Z M39.744,42.832 C37.834,42.832 36.573,41.559 36.573,39.664 L36.573,30.037 C36.573,28.142 37.834,26.87 39.744,26.87 L57.671,26.869 L57.671,21.729 L39.27,21.729 C34.944,21.729 31.425,25.247 31.425,29.573 L31.425,40.129 C31.425,44.454 34.944,47.973 39.27,47.973 L57.671,47.973 L57.671,42.832 L39.744,42.832 Z M92.1,70.647 C92.1,74.972 95.62,78.491 99.945,78.491 L110.938,78.491 C115.263,78.491 118.783,74.972 118.783,70.647 L118.783,59.607 C118.783,55.282 115.263,51.763 110.938,51.763 L99.945,51.763 C95.62,51.763 92.1,55.282 92.1,59.607 L92.1,70.647 Z M97.249,60.071 C97.249,58.176 98.51,56.904 100.42,56.904 L110.469,56.904 C112.379,56.904 113.64,58.176 113.64,60.071 L113.64,70.183 C113.64,72.077 112.379,73.35 110.469,73.35 L100.42,73.35 C98.51,73.35 97.249,72.077 97.249,70.182 L97.249,60.071 Z M118.576,42.328 L118.576,47.974 L113.434,47.974 L113.434,42.564 C113.434,41.129 112.275,39.569 110.087,39.569 L97.472,39.569 L97.472,47.974 L92.329,47.974 L92.329,21.729 L110.407,21.729 C115.845,21.729 118.576,26.073 118.576,30.363 C118.576,34.534 117.085,35.961 115.867,37.014 C117.442,37.868 118.576,39.64 118.576,42.328 L118.576,42.328 Z M113.434,30.653 C113.434,28.919 112.557,26.873 110.087,26.873 L97.472,26.873 L97.472,34.425 L110.083,34.425 C112.57,34.425 113.434,32.196 113.434,30.653 L113.434,30.653 Z M31.425,59.873 C31.425,57.159 33.065,52.027 39.272,52.027 L50.344,52.027 C55.419,52.027 58.137,55.8 58.137,59.979 C58.137,64.013 55.346,67.933 50.289,67.933 L39.558,67.933 C37.259,67.933 36.569,69.387 36.569,70.591 L36.569,73.129 L57.671,73.129 L57.671,78.272 L31.425,78.272 L31.425,70.591 C31.425,66.472 34.801,62.792 39.739,62.792 L50.289,62.792 C52.109,62.792 53.278,61.798 53.278,59.979 C53.278,58.458 52.542,57.168 50.398,57.168 L39.415,57.168 C37.214,57.168 36.569,58.798 36.569,59.873 L31.425,59.873 Z" id="Shape" fill="#ffffff"></path>
        </g>
    </g>
</svg>