<?xml version="1.0" encoding="UTF-8"?>
<svg width="30px" height="50px" viewBox="0 0 30 50" version="1.1" xmlns="http://www.w3.org/2000/svg" xmlns:xlink="http://www.w3.org/1999/xlink">
    <!-- Generator: Sketch 54.1 (76490) - https://sketchapp.com -->
    <title>Untitled</title>
    <desc>Created with Sketch.</desc>
    <g id="Page-1" stroke="none" stroke-width="1" fill="none" fill-rule="evenodd">
        <g id="map-pin" transform="translate(0.000000, 1.000000)" fill="#00A0E1" fill-rule="nonzero" stroke="#FFFFFF">
            <path d="M15.015,0.4 C7.215,0.4 0.894,6.604 0.894,14.254 C0.894,21.906 15.015,47 15.015,47 C15.015,47 29.137,21.906 29.137,14.254 C29.137,6.604 22.812,0.4 15.015,0.4 Z" id="Path"></path>
        </g>
        <g id="car-solid" transform="translate(6.000000, 7.000000)" fill="#FFFFFF" fill-rule="nonzero">
            <path d="M16.6011324,3.79166667 L14.6132586,3.79166667 L14.0607578,2.38333333 C13.4929836,0.935390625 12.1379622,0 10.6082922,0 L6.39148953,0 C4.86215151,0 3.5067981,0.935390625 2.93869185,2.38333333 L2.3861911,3.79166667 L0.398649322,3.79166667 C0.139332562,3.79166667 -0.050921604,4.04015625 0.0121644196,4.29643229 L0.211383442,5.10893229 C0.255543658,5.28971354 0.414918876,5.41666667 0.597868344,5.41666667 L1.26425597,5.41666667 C0.818337395,5.81377604 0.531129972,6.39098958 0.531129972,7.04166667 L0.531129972,8.66666667 C0.531129972,9.21239583 0.735661501,9.70497396 1.0623807,10.0861719 L1.0623807,11.9166667 C1.0623807,12.5148698 1.53818213,13 2.12488215,13 L3.1873836,13 C3.77408362,13 4.24988505,12.5148698 4.24988505,11.9166667 L4.24988505,10.8333333 L12.7498966,10.8333333 L12.7498966,11.9166667 C12.7498966,12.5148698 13.2256981,13 13.8123981,13 L14.8748995,13 C15.4615996,13 15.937401,12.5148698 15.937401,11.9166667 L15.937401,10.0861719 C16.2641202,9.7053125 16.4686517,9.21273437 16.4686517,8.66666667 L16.4686517,7.04166667 C16.4686517,6.39098958 16.1814443,5.81377604 15.7358578,5.41666667 L16.4022454,5.41666667 C16.5851949,5.41666667 16.7445701,5.28971354 16.7887303,5.10893229 L16.9879493,4.29643229 C17.0507033,4.04015625 16.8604491,3.79166667 16.6011324,3.79166667 Z M4.91162423,3.18804688 C5.15367534,2.57122396 5.7397113,2.16666667 6.39148953,2.16666667 L10.6082922,2.16666667 C11.2600704,2.16666667 11.8461064,2.57122396 12.0881575,3.18804688 L12.7498966,4.875 L4.24988505,4.875 L4.91162423,3.18804688 Z M3.1873836,8.65989583 C2.54988273,8.65989583 2.12488215,8.22791667 2.12488215,7.57994792 C2.12488215,6.93197917 2.54988273,6.5 3.1873836,6.5 C3.82488447,6.5 4.78113577,7.47195312 4.78113577,8.11992187 C4.78113577,8.76789062 3.82488447,8.65989583 3.1873836,8.65989583 Z M13.8123981,8.65989583 C13.1748972,8.65989583 12.2186459,8.76789062 12.2186459,8.11992187 C12.2186459,7.47195312 13.1748972,6.5 13.8123981,6.5 C14.449899,6.5 14.8748995,6.93197917 14.8748995,7.57994792 C14.8748995,8.22791667 14.449899,8.65989583 13.8123981,8.65989583 L13.8123981,8.65989583 Z" id="Shape"></path>
        </g>
    </g>
</svg>