<?xml version="1.0" encoding="UTF-8"?>
<svg width="30px" height="50px" viewBox="0 0 30 50" version="1.1" xmlns="http://www.w3.org/2000/svg" xmlns:xlink="http://www.w3.org/1999/xlink">
    <!-- Generator: Sketch 54.1 (76490) - https://sketchapp.com -->
    <title>Untitled</title>
    <desc>Created with Sketch.</desc>
    <g id="Page-1" stroke="none" stroke-width="1" fill="none" fill-rule="evenodd">
        <g id="map-pin" transform="translate(0.000000, 1.000000)" fill-rule="nonzero">
            <path d="M15.015,0.4 C7.215,0.4 0.894,6.604 0.894,14.254 C0.894,21.906 15.015,47 15.015,47 C15.015,47 29.137,21.906 29.137,14.254 C29.137,6.604 22.812,0.4 15.015,0.4 Z" id="Path" stroke="#FFFFFF" fill="#4A4A4A"></path>
            <g id="Group-2" transform="translate(7.000000, 6.000000)">
                <path d="M6.49988834,0 C5.11907633,0 4,0.989584876 4,2.21017819 C4,2.66785133 4.15722006,3.0927489 4.4261021,3.44557974 C4.42744205,3.4467644 6.0221984,5.46068414 6.41390862,5.95468681 C6.46147662,6.0151044 6.53852338,6.0151044 6.58609138,5.95468681 C6.97735495,5.46068414 8.57255795,3.4467644 8.57345125,3.44557974 C8.84277994,3.0927489 9,2.66804877 9,2.21017819 C8.99977668,0.989584876 7.88070034,0 6.49988834,0 Z M7.20670865,2.82600326 L6.53450355,3.41695049 C6.51529769,3.4339306 6.48336237,3.4339306 6.46393318,3.41695049 L5.79150476,2.82600326 C5.611059,2.667259 5.4991737,2.44770226 5.4991737,2.20504467 C5.4991737,1.7197295 5.94716155,1.32602794 6.49921837,1.32602794 C7.05127518,1.32602794 7.49926303,1.7197295 7.49926303,2.20504467 C7.49948635,2.44770226 7.38760105,2.667259 7.20670865,2.82600326 Z" id="Shape" fill="#FFFFFF"></path>
                <g id="Group" transform="translate(0.000000, 1.000000)" fill="#FDC300">
                    <path d="M0.168740741,3.65004396 C0.0908765432,3.65004396 0.0638024691,3.69830769 0.108506173,3.75883516 L5.20011111,10.6118901 C5.24481481,10.6718242 5.24481481,10.7691429 5.20011111,10.8294725 L0.825444444,16.7178462 C0.73645679,16.8379121 0.537493827,16.9354286 0.381555556,16.9354286 L0.287740741,16.9354286 C0.131802469,16.9354286 0.00566666667,17.0549011 0.00566666667,17.2012747 L0.00566666667,17.5555385 C0.00566666667,17.7023077 0.131802469,17.8213846 0.287740741,17.8213846 L3.48332099,17.8213846 C3.63862963,17.8213846 3.83717284,17.7240659 3.92679012,17.6038022 L7.07997531,13.3591648 C7.12467901,13.2992308 7.19708642,13.2992308 7.24137037,13.3591648 L10.3945556,17.6038022 C10.4837531,17.7238681 10.682716,17.8213846 10.8384444,17.8213846 C11.5358642,17.8213846 13.3359753,17.8213846 14.0333951,17.8213846 C14.1889136,17.8213846 14.3154691,17.7023077 14.3154691,17.5555385 L14.3154691,17.2012747 C14.3154691,17.0549011 14.1889136,16.9354286 14.0333951,16.9354286 L13.9391605,16.9354286 C13.7832222,16.9354286 13.5848889,16.8381099 13.4956914,16.7178462 L3.86760494,3.75883516 C3.82332099,3.69830769 3.72341975,3.65004396 3.64597531,3.65004396 L0.168740741,3.65004396 Z" id="Path"></path>
                    <path d="M16.7846667,0.106813187 L13.3070123,0.106813187 C13.2295679,0.106813187 13.1300864,0.15567033 13.0858025,0.216 L8.18119753,6.81705495 C8.13628395,6.87718681 8.13628395,6.97450549 8.18119753,7.03503297 L9.89903704,9.34714286 C9.94374074,9.40707692 10.0161481,9.40707692 10.060642,9.34714286 L16.8444815,0.216 C16.8891852,0.15567033 16.8625309,0.106813187 16.7846667,0.106813187 Z" id="Path"></path>
                </g>
            </g>
        </g>
    </g>
</svg>